<?xml version="1.0" encoding="utf-8"?>
<!-- Generator: Adobe Illustrator 15.0.0, SVG Export Plug-In  -->
<!DOCTYPE svg PUBLIC "-//W3C//DTD SVG 1.1//EN" "http://www.w3.org/Graphics/SVG/1.1/DTD/svg11.dtd" [
	<!ENTITY ns_flows "http://ns.adobe.com/Flows/1.0/">
]>
<svg version="1.1"
	 xmlns="http://www.w3.org/2000/svg" xmlns:xlink="http://www.w3.org/1999/xlink" xmlns:a="http://ns.adobe.com/AdobeSVGViewerExtensions/3.0/"
	 x="0px" y="0px" width="330px" height="375px" viewBox="-2.284 -6.727 330 375"
	 overflow="visible" enable-background="new -2.284 -6.727 330 375" xml:space="preserve">
<defs>
</defs>
<g id="Shape_8_1_">
	<g>
		<polygon fill="#434343" points="203.512,323.173 203.512,342.04 221.78,342.04 221.78,322.887 		"/>
	</g>
</g>
<g id="Shape_7_1_">
	<g>
		<polygon fill="#434343" points="116.741,324.03 116.741,341.754 134.724,341.754 134.724,322.315 		"/>
	</g>
</g>
<g id="Shape_6_1_">
	<g>
		<polygon fill="#434343" points="140.432,178.292 140.432,194.529 196.148,194.529 196.148,176.691 		"/>
	</g>
</g>
<g id="Shape_14_1_">
	<g>
		<polygon fill="#434343" points="68.884,197.578 24.356,233.026 32.729,241.412 35.394,244.081 69.645,215.875 		"/>
	</g>
</g>
<g id="Shape_16_1_">
	<g>
		<ellipse fill="#434343" cx="306.553" cy="247.511" rx="18.838" ry="18.677"/>
	</g>
</g>
<g id="Shape_16_copy_1_">
	<g>
		<ellipse fill="#434343" cx="18.838" cy="247.511" rx="18.838" ry="18.677"/>
	</g>
</g>
<g id="Shape_15_1_">
	<g>
		<polygon fill="#434343" points="257.649,197.578 256.888,216.637 292.663,242.175 302.557,232.265 		"/>
	</g>
</g>
<g id="Shape_13_1_">
	<g>
		<rect x="163.647" y="11.569" fill="#434343" width="4.947" height="46.503"/>
	</g>
</g>
<g id="Shape_10_1_">
	<g>
		<path fill="#434343" d="M262.597,98.189v49.457c0,0,17.981-13.795,17.981-26.3C280.579,109.126,262.597,98.189,262.597,98.189z"/>
	</g>
</g>
<g id="Shape_11_1_">
	<g>
		<path fill="#434343" d="M53.09,123.346c0,12.363,15.699,24.585,15.699,24.585V97.904C68.789,97.904,53.09,110.698,53.09,123.346z"
			/>
	</g>
</g>
<g id="Shape_1_1_">
	<g>
		<polygon fill="#A8A8A8" points="67.361,57.31 67.647,181.379 263.167,181.379 263.167,57.31 		"/>
	</g>
</g>
<g id="Shape_2_1_">
	<g>
		<rect x="66.22" y="192.527" fill="#A8A8A8" width="194.949" height="136.363"/>
	</g>
</g>
<g id="Shape_3_1_">
	<g>
		<polygon fill="#A8A8A8" points="196.376,338.61 196.376,357.478 250.894,357.478 250.894,338.896 		"/>
	</g>
</g>
<g id="Shape_4_1_">
	<g>
		<rect x="85.629" y="338.896" fill="#A8A8A8" width="54.518" height="18.581"/>
	</g>
</g>
<g id="Shape_9_1_">
	<g>
		<polygon fill="#434343" points="116.741,144.215 132.155,166.514 197.233,166.514 214.074,144.5 		"/>
	</g>
</g>
<g id="Shape_12_1_">
	<g>
		<ellipse fill="#434343" cx="114.934" cy="96.76" rx="11.798" ry="10.864"/>
	</g>
</g>
<g id="Shape_12_copy_1_">
	<g>
		<ellipse fill="#434343" cx="214.263" cy="96.76" rx="11.798" ry="10.864"/>
	</g>
</g>
<g id="Shape_12_copy_2_1_">
	<g>
		<ellipse fill="#434343" cx="165.566" cy="8.072" rx="8.766" ry="8.072"/>
	</g>
</g>
<g id="Shape_17_1_">
	<g>
		<polygon fill="#C2BEBD" points="237.859,65.314 255.366,82.085 255.366,65.314 		"/>
	</g>
</g>
<g id="Shape_18_1_">
	<g>
		<polygon fill="#C2BEBD" points="237.859,201.009 255.366,218.161 255.366,201.009 		"/>
	</g>
</g>
</svg>
